<svg xmlns:xlink="http://www.w3.org/1999/xlink" class="h-6 w-6 md:h-7 md:w-7 fill-current" viewBox="0 0 512 512" xmlns="http://www.w3.org/2000/svg" width="512"  height="512" ><path d="M491.92 383.35l-58-100.51A52.08 52.08 0 00404.06 259L316 106.5l2.65-4.6a18.41 18.41 0 001.74-14.41A19.45 19.45 0 00311.36 76a19.67 19.67 0 00-10.71-2.62 18.45 18.45 0 00-.4-7.91 19.31 19.31 0 00-9.13-11.84 19.51 19.51 0 00-14.83-2 18.72 18.72 0 00-7.06 3.61 19.54 19.54 0 00-7.63-8 19.33 19.33 0 00-14.49-2.07A18.45 18.45 0 00236 53.06a19.72 19.72 0 00-21.79-8.81 18.49 18.49 0 00-11.3 8.63l-58 100.51a52.06 52.06 0 00-5.73 37.73l-88 152.46H45.7c-10.36 0-18.79 8.66-18.79 19.31A19.59 19.59 0 0030 373.48a19.49 19.49 0 000 36.28 19.56 19.56 0 00-3.09 10.59 19.11 19.11 0 0017.85 19.28 19.56 19.56 0 00-2.42 9.46 19.08 19.08 0 0018.8 19.3h116.05a52 52 0 0035.55-13.91h176.13l2.68 4.63a18.7 18.7 0 0016.31 9.27 19.73 19.73 0 0017.44-10.62 19 19 0 0012.07 4.29 19.69 19.69 0 0018.86-14.16 18.6 18.6 0 00.49-8.27h.9a19.69 19.69 0 0018.94-14.49 18.41 18.41 0 00-1.36-13.25 19.67 19.67 0 009.41-2.63c9.2-5.25 12.48-16.94 7.31-25.9zm-343.24-189a4.94 4.94 0 00.49-3.74 42.28 42.28 0 014.25-32.27l58-100.51a8.57 8.57 0 015.29-4 9.46 9.46 0 017.31 1 9.17 9.17 0 013.78 12.27l-29.09 50.39a4.94 4.94 0 001.82 6.75 5 5 0 006.75-1.81l.17-.29v-.06l28.81-49.89.16-.29 7.55-13.08a8.58 8.58 0 015.44-4.05 9.81 9.81 0 0111.66 6.73 8.56 8.56 0 01-.8 6.74l-36.72 63.61a5 5 0 001.82 6.76 4.59 4.59 0 00.5.24l.3.11.16.06a4.87 4.87 0 001.51.24 5 5 0 003.63-1.6l.12-.14a1.83 1.83 0 00.21-.26 2.59 2.59 0 00.32-.47l41.36-71.62a8.53 8.53 0 015.29-4A9.81 9.81 0 01290.7 68a8.5 8.5 0 01-.83 6.59l-4.57 7.91-.07.11-36.72 63.6a5 5 0 001.82 6.76 4.44 4.44 0 00.49.24l.34.13h.11a4.87 4.87 0 004.83-1l.06-.05.23-.23c.07-.08.14-.15.2-.23s.11-.13.16-.19a5.25 5.25 0 00.33-.49l36.75-63.68a9.24 9.24 0 0112.59-2.93 9.58 9.58 0 014.49 5.68 8.56 8.56 0 01-.8 6.74l-39.37 68.2q-.14.24-.24.48L260 183.9a5 5 0 001.82 6.76 5 5 0 006.76-1.81l14.3-24.77a17.93 17.93 0 0124.46-6.57l2.21 1.75-27.94 48.39a33 33 0 01-15.33 13.74 4.83 4.83 0 00-1 .42c-1 .41-2.06.77-3.12 1.09L227 234.82a5 5 0 00-2.71 2.22l-47.1 81.59a42.87 42.87 0 00-21.35-5.63H100a10.31 10.31 0 00-10.3 10.29v2.35a27.67 27.67 0 006.59 17.95H62.52zM305.4 347.44l-.09.45H211.8l-26.32-23.09-.3-.27 46.72-80.94 33.15-11.24.47-.15 46.72 80.92zm-94.65 97.15a4.94 4.94 0 00-3.5 1.46 42.81 42.81 0 01-30.06 12.46h-116a9.45 9.45 0 010-18.86h58a4.94 4.94 0 100-9.88H45.7a9.44 9.44 0 010-18.85h73.44a4.94 4.94 0 100-9.88h-82.7a9.43 9.43 0 010-18.84h82.7a4.95 4.95 0 100-9.89H45.7a9.44 9.44 0 010-18.84h78.75a4.07 4.07 0 00.5 0h21.12a4.94 4.94 0 000-9.88h-28.6a17.94 17.94 0 01-17.91-17.93l.41-2.76h55.87a33.22 33.22 0 0123 9.24l27.85 24.45a5 5 0 003.26 1.22h94.25A42.84 42.84 0 00310 379l27.94 48.38A10.31 10.31 0 00352 431.2l2-1.18a27.65 27.65 0 0012.24-14.68l16.9 29.25zm268.9-43.87a9.18 9.18 0 01-12.61-3l-16.92-29.31L438 347.47a5 5 0 00-6.76-1.82 5 5 0 00-1.82 6.76l.19.33 8 13.81L466.19 416a8.59 8.59 0 01.82 6.59 9.53 9.53 0 01-4.53 5.83 9.19 9.19 0 01-12.54-2.88l-36.79-63.73a5 5 0 00-1.32-1.47l-.18-.12-.21-.14a4.94 4.94 0 00-7.53 4.34 5 5 0 00.66 2.34l36.74 63.61.1.15 4.54 7.88a8.64 8.64 0 01.78 6.74 9.59 9.59 0 01-4.5 5.68 9.16 9.16 0 01-12.6-3l-41.36-71.62a4.94 4.94 0 00-1.72-1.74 2.79 2.79 0 00-.34-.18h-.07a4.94 4.94 0 00-6.45 6.9l36.74 63.61a8.58 8.58 0 01.82 6.59 9.5 9.5 0 01-4.53 5.83 9.15 9.15 0 01-12.61-3L360.73 386c-.07-.12-.15-.24-.23-.36l-10.59-18.35a4.95 4.95 0 10-8.57 4.94L355.62 397a17.92 17.92 0 01-6.55 24.48l-2.58 1-28-48.39A33.06 33.06 0 01314.3 354a4.66 4.66 0 00.14-1.13c.15-1.09.36-2.18.62-3.26l7.24-36.35a5 5 0 00-.56-3.44l-47.11-81.62a42.94 42.94 0 0015.49-15.61l27.95-48.4a10.33 10.33 0 00-3.77-14.05l-2.05-1.14a27.66 27.66 0 00-18.86-3.23l16.92-29.33 86.18 149.27a5 5 0 003 2.31 42.22 42.22 0 0125.82 19.82l58.05 100.46a9.21 9.21 0 01-3.71 12.42z" fill="#6D28D9"></path></svg>