<svg xmlns:xlink="http://www.w3.org/1999/xlink" class="flex-shrink-0 h-6 w-6 text-yellow-400" xmlns="http://www.w3.org/2000/svg" fill="none" viewBox="0 0 24 24" stroke="currentColor" aria-hidden="true" width="24"  height="24" >
                          <path stroke-linecap="round" stroke-linejoin="round" stroke-width="2px" d="M17 14v6m-3-3h6M6 10h2a2 2 0 002-2V6a2 2 0 00-2-2H6a2 2 0 00-2 2v2a2 2 0 002 2zm10 0h2a2 2 0 002-2V6a2 2 0 00-2-2h-2a2 2 0 00-2 2v2a2 2 0 002 2zM6 20h2a2 2 0 002-2v-2a2 2 0 00-2-2H6a2 2 0 00-2 2v2a2 2 0 002 2z" stroke="#FBBF24" fill="none"></path>
                        </svg>