<svg xmlns="http://www.w3.org/2000/svg" xmlns:xlink="http://www.w3.org/1999/xlink" width="115" height="62" viewBox="0 0 115 62" version="1.1">
    <!-- Generator: Sketch 64 (93537) - https://sketch.com -->
    <title>YemenHR-logo</title>
    <desc>Created with Sketch.</desc>
    <g id="Page-1" stroke="none" stroke-width="1" fill="none" fill-rule="evenodd">
        <g id="Desktop-Homepage-1366X768" transform="translate(-226.000000, -25.000000)" fill-rule="nonzero">
            <g id="YemenHR-logo" transform="translate(226.000000, 25.000000)">
                <polygon id="Path" fill="#372A1A" points="68 38 72.3401015 38 72.3401015 28.3380734 78.1725888 38 83 38 83 21 78.1954315 21 78.6218274 30.3577982 73.0025381 21 68 21"/>
                <polyline id="Path" fill="#372A1A" points="0.0615976901 21 0.130895091 21 5.75938402 21 8.67757459 26.5191781 11.4725698 21 16 21 10.7256978 30.7652968 10.7256978 38 5.64388835 38 5.64388835 30.7420091 0 21 5.75938402 21"/>
                <polygon id="Path" fill="#372A1A" points="17 21 29 21 29 24.9770642 21.8292683 24.9770642 21.8292683 27.3944954 27.6097561 27.3944954 27.6097561 31.1376147 21.8292683 31.1376147 21.8292683 33.9449541 29 33.9449541 29 38 17 38"/>
                <polygon id="Path" fill="#372A1A" points="52 21 64 21 64 24.9770642 56.8292683 24.9770642 56.8292683 27.3944954 62.6097561 27.3944954 62.6097561 31.1376147 56.8292683 31.1376147 56.8292683 33.9449541 64 33.9449541 64 38 52 38"/>
                <polygon id="Path" fill="#372A1A" points="32 21 38.6176471 21 40.8789916 29.8119266 41.1890756 29.8119266 43.4352941 21 50 21 50 38 45.3109244 38 45.3109244 25.8738532 42.3159664 38 38.9957983 38 35.8571429 25.9986239 35.8571429 38 32 38"/>
                <path d="M104.954241,25.3315068 C104.600508,21.7684932 100.878614,21.0776256 100.878614,21.0776256 L89.7667618,21.0776256 L89.7667618,27.2876712 L87.3060056,27.2876712 L87.3060056,21 L82,21 L82,38 L87.2291069,38 L87.2291069,31.5570776 L89.7667618,31.5570776 L89.7667618,38 L96.1493482,38 L96.1493482,31.5570776 L96.6338095,31.5570776 L99.0330468,38 L104.992691,38 L102.108992,30.6333333 C103.91611,29.8027397 105.269526,28.4520548 104.954241,25.3315068 Z M99.5021285,26.3639269 C99.3406413,28.2424658 96.1877975,27.7223744 96.1877975,27.7223744 L96.1877975,24.6949772 L96.2646961,24.6949772 C97.9103268,24.6949772 99.6482359,24.7415525 99.5021285,26.3639269 Z" id="Shape" fill="#FEC80E"/>
                <path d="M112.561529,18.9291358 C111.00213,15.2397531 108.77005,11.9254321 105.926441,9.07802469 C103.082832,6.23061728 99.7729323,3.99555556 96.0884712,2.43407407 C92.266416,0.819012346 88.2150376,0 84.0337093,0 C79.852381,0 75.8010025,0.819012346 71.9789474,2.43407407 C68.2944862,3.99555556 64.9845865,6.23061728 62.1409774,9.07802469 C59.2973684,11.9254321 57.0652882,15.2550617 55.5058897,18.9520988 C55.2307018,19.6103704 54.970802,20.2839506 54.7414787,20.9728395 L62.1562657,20.9728395 C65.9706767,12.6296296 74.3409774,6.90419753 84.0337093,6.90419753 C97.3115288,6.90419753 108.112657,17.7120988 108.112657,31.0076543 C108.112657,44.3032099 97.3115288,55.1340741 84.0337093,55.1340741 C73.3854637,55.1340741 64.327193,48.145679 61.1625313,38.5777778 L54,38.5777778 C54.3822055,40.108642 54.8867168,41.6088889 55.5135338,43.0861728 C57.0729323,46.7755556 59.3050125,50.0822222 62.1486216,52.9296296 C64.9922306,55.777037 68.3021303,58.0044444 71.9865915,59.5659259 C75.8086466,61.1809877 79.8600251,62 84.0413534,62 C88.2226817,62 92.2740602,61.1809877 96.0961153,59.5582716 C99.7805764,57.9967901 103.090476,55.7617284 105.934085,52.914321 C108.777694,50.0669136 111.009774,46.7525926 112.569173,43.0632099 C114.18208,39.2360494 115,35.1792593 115,30.9923457 C115,26.8054321 114.18208,22.7562963 112.561529,18.9291358 Z" id="Path" fill="#FEC80E"/>
            </g>
        </g>
    </g>
</svg>